<?xml version="1.0" encoding="UTF-8" standalone="no"?>
<svg
   data-name="Layer 1"
   viewBox="0 0 539.1734 100.08999"
   version="1.1"
   id="svg16"
   sodipodi:docname="omvpetrom-logo--ro.svg"
   width="539.1734"
   height="100.09"
   inkscape:version="1.2.1 (9c6d41e410, 2022-07-14)"
   xmlns:inkscape="http://www.inkscape.org/namespaces/inkscape"
   xmlns:sodipodi="http://sodipodi.sourceforge.net/DTD/sodipodi-0.dtd"
   xmlns="http://www.w3.org/2000/svg"
   xmlns:svg="http://www.w3.org/2000/svg">
  <defs
     id="defs20" />
  <sodipodi:namedview
     id="namedview18"
     pagecolor="#505050"
     bordercolor="#eeeeee"
     borderopacity="1"
     inkscape:showpageshadow="0"
     inkscape:pageopacity="0"
     inkscape:pagecheckerboard="0"
     inkscape:deskcolor="#505050"
     showgrid="false"
     inkscape:zoom="0.53335661"
     inkscape:cx="280.30027"
     inkscape:cy="-88.121154"
     inkscape:window-width="1920"
     inkscape:window-height="1017"
     inkscape:window-x="-8"
     inkscape:window-y="-8"
     inkscape:window-maximized="1"
     inkscape:current-layer="svg16" />
  <path
     d="m 145.29785,25.686397 v -0.14666 c 0,-9.595734 -6.97681,-17.5624975 -16.79254,-17.5624975 -9.81572,0 -16.6354,7.8567685 -16.6354,17.4367895 v 0.125708 c 0,9.595734 6.99253,17.567736 16.79254,17.567736 9.80001,0 16.6354,-7.83058 16.6354,-17.421076 m -42.52607,0 v -0.14666 C 102.77178,11.643732 113.49888,0 128.66245,0 c 15.16356,0 25.73877,11.523261 25.73877,25.414029 v 0.125708 c 0,13.906481 -10.72187,25.534499 -25.89591,25.534499 -15.17404,0 -25.73353,-11.491834 -25.73353,-25.387839 M 163.90791,0.85900674 h 9.23433 L 188.18009,24.204086 203.20224,0.85900674 h 9.23432 V 50.230943 h -8.67911 V 14.817866 l -15.57736,23.276988 h -0.28808 L 172.45084,14.975002 v 35.255941 h -8.54293 z m 55.43213,0 h 9.5905 L 243.81649,38.801963 258.6396,0.85900674 h 9.37574 L 247.48822,50.592355 H 239.8724 Z M 315.00406,26.534928 c 6.53683,0 10.63806,-3.666492 10.63806,-8.825771 v -0.136184 c 0,-5.76163 -4.15885,-8.8152945 -10.63806,-8.8152945 H 304.91073 V 26.534928 Z M 296.22638,0.86948244 h 19.47431 c 11.52326,0 18.75673,6.55778316 18.75673,16.50445256 v 0.141422 c 0,11.083282 -8.90434,16.865864 -19.75716,16.865864 h -9.78953 v 15.865436 h -8.68435 z M 366.21448,28.98624 c -0.5814,-5.489263 -3.81839,-9.789534 -9.45431,-9.789534 -5.23785,0 -8.90434,4.01219 -9.65859,9.789534 z m -27.58774,2.765582 v -0.141421 c 0,-10.648541 7.55298,-19.380031 18.19628,-19.380031 11.85848,0 17.85582,9.323366 17.85582,20.034761 0,0.785677 -0.0733,1.571354 -0.14666,2.398934 h -27.37822 c 0.92186,6.070663 5.23784,9.428123 10.72711,9.428123 4.16408,0 7.12347,-1.571354 10.09856,-4.431218 l 4.99691,4.431218 c -3.52507,4.237417 -8.38056,6.987286 -15.2369,6.987286 -10.78472,0 -19.1129,-7.820104 -19.1129,-19.322414 m 44.46932,8.17104 V 20.301891 H 378.382 v -7.332984 h 4.71406 V 2.7655827 h 8.53245 V 12.968907 h 10.01476 v 7.332984 h -10.01476 v 18.28532 c 0,3.305081 1.68658,4.651208 4.5674,4.651208 a 11.423742,11.423742 0 0 0 5.30594,-1.272797 v 6.987287 a 15.022142,15.022142 0 0 1 -7.68916,1.890862 c -6.28542,0 -10.71663,-2.749869 -10.71663,-10.931384 m 25.73877,-26.94348 h 8.53245 v 8.380553 c 2.34656,-5.531165 6.63635,-9.349555 13.1889,-9.071949 v 9.030047 h -0.48712 c -7.49536,0 -12.70178,4.871196 -12.70178,14.749774 v 14.173611 h -8.53245 z m 56.13924,18.856245 V 31.68373 c 0,-6.563021 -4.71407,-11.989429 -11.41851,-11.989429 -6.85634,0 -11.2247,5.358316 -11.2247,11.848008 v 0.141421 c 0,6.489692 4.71406,11.999906 11.36612,11.999906 6.90872,0 11.27709,-5.431647 11.27709,-11.858484 m -31.17566,0 V 31.68373 c 0,-10.64854 8.46959,-19.474311 19.90381,-19.474311 11.43422,0 19.81477,8.689587 19.81477,19.33289 v 0.141421 c 0,10.585687 -8.46436,19.380031 -19.95619,19.380031 -11.35565,0 -19.75716,-8.663398 -19.75716,-19.254322 m 47.01491,-18.840532 h 8.55864 v 5.667349 c 2.38846,-3.326032 5.64116,-6.432075 11.35565,-6.432075 5.35832,0 9.09814,2.618923 11.07804,6.568259 3.02224,-3.954574 6.97158,-6.568259 12.61798,-6.568259 8.11342,0 13.05271,5.154041 13.05271,14.267893 v 23.758869 h -8.53769 v -21.15566 c 0,-5.929242 -2.74987,-9.108614 -7.5425,-9.108614 -4.66168,0 -7.95629,3.252702 -7.95629,9.23956 v 21.024714 h -8.54816 V 28.98624 c 0,-5.761631 -2.8232,-9.019571 -7.56345,-9.019571 -4.74025,0 -7.95629,3.530308 -7.95629,9.318128 v 20.951384 h -8.53245 z"
     fill="#00386c"
     id="path2"
     style="stroke-width:0.999999" />
  <path
     fill="#62bb46"
     d="m 102.8713,58.265799 h 436.30209 v 4.20599 H 102.8713 Z"
     id="path4"
     style="stroke-width:0.999999" />
  <path
     d="M 46.925862,58.119139 H 5.7668684 L 21.208038,0.50283322 h 37.466313 c 5.421171,0 9.642874,1.51373748 12.539403,4.50978538 4.001715,4.1221848 4.431218,9.9152424 4.347412,13.0003334 C 75.335939,34.250275 55.625925,40.26856 43.264608,40.26856 h -1.047569 c 2.45655,1.644684 4.714061,2.283701 7.888196,3.189848 l -0.115233,0.853769 -9.585258,0.115233 a 25.843532,25.843532 0 0 0 8.569116,3.949336 l -0.104757,0.864244 -9.58002,0.06285 c 2.79701,1.445646 5.824485,2.833675 8.527213,3.294606 l -0.07333,0.853768 -9.999048,0.172849 c 2.519404,1.817533 6.390172,2.844151 9.307653,3.614114 z"
     fill="#00386c"
     id="path6"
     style="stroke-width:0.999999" />
  <path
     d="M 41.14328,61.974194 H 0 L 0.15189753,61.413744 15.430694,4.3788393 h 37.466313 c 5.410695,0 9.632399,1.5084996 12.539403,4.5150232 4.001714,4.1169465 4.446931,9.9100045 4.35265,13.0055715 -0.230465,16.205896 -19.935242,22.25037 -32.301796,22.25037 -0.350936,0 -0.696634,0 -1.047569,-0.03143 2.440836,1.660397 4.714061,2.304652 7.898671,3.216037 L 44.212658,48.17247 34.6274,48.298178 a 25.864484,25.864484 0 0 0 8.579592,3.954574 l -0.104757,0.864244 -9.595734,0.07333 c 2.786534,1.440408 5.803533,2.833675 8.521975,3.299843 l -0.06809,0.853769 -9.988572,0.162373 c 2.545593,1.838484 6.54207,2.901767 9.297177,3.629828 z"
     fill="#00386c"
     id="path8"
     style="stroke-width:0.999999" />
  <path
     d="M 68.903864,21.873245 C 69.008621,18.913862 68.605307,13.393172 64.82882,9.4962148 62.094664,6.6834915 58.077236,5.2483217 52.897007,5.2483217 H 16.095901 L 1.1313747,61.099474 H 37.969146 c -2.718442,-0.82758 -5.630685,-1.948479 -7.474407,-3.708395 l 0.288082,-0.749012 8.061045,-0.130947 a 54.756442,54.756442 0 0 1 -7.254417,-3.373172 l 0.193801,-0.817104 8.532451,-0.07333 A 27.388697,27.388697 0 0 1 33.07176,48.230086 l 0.277605,-0.775201 7.992953,-0.115233 a 19.254322,19.254322 0 0 1 -6.563021,-3.367935 l 0.288082,-0.780439 c 0.775201,0.06809 1.602781,0.08381 2.430361,0.08381 12.047045,0 31.217562,-5.808772 31.427076,-21.407077"
     fill="#ffdd00"
     id="path10"
     style="stroke-width:0.999999" />
  <path
     d="m 37.288226,13.445551 c -9.889054,0.235703 -19.233371,0.811866 -22.459884,12.319413 2.299414,-2.241798 5.347841,-5.127851 8.726251,-4.714061 -4.583115,2.027046 -7.710109,5.646398 -10.119518,10.33427 3.074616,-2.72368 7.228227,-4.714061 10.266178,-4.509785 -6.065426,3.142707 -10.266178,6.604924 -11.853245,10.533308 3.807914,-3.058902 8.417218,-5.038808 11.81658,-4.981191 -9.475263,4.027903 -19.0971863,14.948812 -10.74806,20.233799 2.969859,1.848959 5.798296,2.068949 9.250036,2.461787 -3.33127,-1.571353 -5.174992,-3.315556 -6.070663,-4.96024 -3.666492,-6.594448 9.323366,-11.240417 13.529356,-12.481787 8.831008,-2.173706 18.521023,-3.362697 28.83958,-3.786963 l 1.932765,-4.860721 -2.72368,0.136184 -0.178086,-1.21518 -2.744632,2.04276 -0.293319,-2.362269 -2.618923,2.430361 h -0.151898 l -0.419027,-2.954145 -3.828866,2.749869 -0.225227,-2.566544 -2.425123,1.780867 -0.204276,-0.995191 3.923147,-4.593591 h 0.204276 l 0.162373,3.781725 3.189848,-2.922718 h 0.151898 l 0.487119,2.812724 3.069378,-2.786535 0.193801,2.859864 3.142707,-2.23656 0.183325,2.26275 5.64116,-7.003001 -17.36346,-1.723251 0.05762,-2.996048 -6.028761,-1.173277 c 0.183325,-1.346127 1.665635,-2.880816 2.315128,-3.980763 -2.760345,0.199038 -4.588353,1.220418 -6.610162,3.048426 m 6.39541,3.467454 a 1.0475692,1.0475692 0 1 1 0,2.037522 1.0475692,1.0475692 0 1 1 0,-2.037522"
     fill="#ec1b2e"
     id="path12"
     style="stroke-width:0.999999" />
  <path
     d="M 104.59455,92.217517 V 70.532834 h 15.67687 v 2.561307 h -12.81177 v 6.641589 h 11.9999 v 2.545593 h -11.9999 v 7.380125 h 13.3146 v 2.556069 z m 19.80429,0 V 76.503979 h 2.39894 v 2.23656 a 5.6359223,5.6359223 0 0 1 4.9969,-2.618923 6.5734967,6.5734967 0 0 1 2.61892,0.523785 4.1221848,4.1221848 0 0 1 1.78087,1.33565 5.1802297,5.1802297 0 0 1 0.82758,1.96943 15.02738,15.02738 0 0 1 0.1519,2.587496 v 9.67954 h -2.66606 v -9.553831 a 7.2806059,7.2806059 0 0 0 -0.30904,-2.435599 2.5874959,2.5874959 0 0 0 -1.09995,-1.283272 3.4779297,3.4779297 0 0 0 -1.85943,-0.481882 4.3421743,4.3421743 0 0 0 -2.93843,1.078996 c -0.82234,0.722823 -1.2309,2.095139 -1.2309,4.095996 v 8.579592 z m 27.60345,-5.054522 2.75511,0.34046 a 6.7253943,6.7253943 0 0 1 -2.41465,3.739822 7.2229896,7.2229896 0 0 1 -4.47312,1.340889 q -3.4465,0 -5.46831,-2.095139 -2.02181,-2.095138 -2.01657,-5.95543 0,-3.959812 2.03752,-6.154469 a 6.9244324,6.9244324 0 0 1 5.29546,-2.18942 6.7096807,6.7096807 0 0 1 5.14881,2.147517 q 1.99561,2.147517 2.00085,6.033998 v 0.712347 h -11.75372 c 0.0995,1.723252 0.58664,3.048427 1.46659,3.96505 a 4.3474122,4.3474122 0 0 0 3.28937,1.335651 4.0750442,4.0750442 0 0 0 2.49845,-0.769964 5.0702349,5.0702349 0 0 0 1.63421,-2.451312 z m -8.74196,-4.305509 h 8.79958 a 5.3478408,5.3478408 0 0 0 -1.00567,-2.975097 4.080282,4.080282 0 0 0 -3.29984,-1.539926 4.2217039,4.2217039 0 0 0 -3.08509,1.230893 4.8554832,4.8554832 0 0 0 -1.40898,3.28413 z m 14.80739,9.360031 V 76.503979 h 2.39893 v 2.38322 a 6.5106426,6.5106426 0 0 1 1.69182,-2.205134 2.9541451,2.9541451 0 0 1 1.70754,-0.523784 5.2064189,5.2064189 0 0 1 2.7394,0.859007 l -0.9271,2.472263 a 3.7817248,3.7817248 0 0 0 -1.95372,-0.576163 2.5194039,2.5194039 0 0 0 -1.57135,0.523784 2.8389125,2.8389125 0 0 0 -0.99519,1.456122 10.475692,10.475692 0 0 0 -0.43998,3.106042 v 8.223419 z m 9.6324,1.304223 2.58749,0.382363 a 2.482739,2.482739 0 0 0 0.90091,1.749441 4.4521691,4.4521691 0 0 0 2.70797,0.738536 4.7507263,4.7507263 0 0 0 2.85462,-0.738536 3.6350651,3.6350651 0 0 0 1.36184,-2.095139 16.630161,16.630161 0 0 0 0.1938,-3.415075 5.4683112,5.4683112 0 0 1 -4.34741,2.053235 5.9240038,5.9240038 0 0 1 -5.01786,-2.336079 8.9881437,8.9881437 0 0 1 -1.77562,-5.604495 10.397124,10.397124 0 0 1 0.8171,-4.148374 6.4896912,6.4896912 0 0 1 2.35703,-2.938432 6.3639829,6.3639829 0 0 1 3.62983,-1.047569 5.6306845,5.6306845 0 0 1 4.58835,2.252274 v -1.896101 h 2.45655 v 13.581735 q 0,3.666492 -0.74901,5.201181 a 5.4840248,5.4840248 0 0 1 -2.36751,2.414647 8.197229,8.197229 0 0 1 -3.986,0.890434 7.5110712,7.5110712 0 0 1 -4.54121,-1.267559 c -1.15233,-0.811866 -1.71278,-2.095138 -1.67087,-3.776487 z m 2.20513,-9.428122 q 0,3.095567 1.22565,4.515023 a 4.048855,4.048855 0 0 0 6.15447,0 q 1.24137,-1.414219 1.24137,-4.431218 0,-2.880815 -1.27803,-4.347412 a 3.9493359,3.9493359 0 0 0 -3.08509,-1.466597 3.8393411,3.8393411 0 0 0 -3.017,1.445646 c -0.82758,0.953287 -1.24137,2.383219 -1.24137,4.274082 z m 15.15309,-10.496644 v -3.06414 h 2.66082 v 3.06414 z m 0,18.620543 V 76.503979 h 2.66082 v 15.713538 z m 16.96014,-1.938003 a 9.6847773,9.6847773 0 0 1 -2.81796,1.780867 8.2600831,8.2600831 0 0 1 -2.93843,0.523785 q -2.59273,0 -3.98076,-1.262321 a 4.1902768,4.1902768 0 0 1 -1.38803,-3.231751 4.3631257,4.3631257 0 0 1 1.90134,-3.666492 6.5734967,6.5734967 0 0 1 1.91181,-0.87472 20.155231,20.155231 0 0 1 2.36751,-0.398077 24.266941,24.266941 0 0 0 4.75072,-0.916623 v -0.696633 q 0,-1.623733 -0.75425,-2.294177 a 4.4835962,4.4835962 0 0 0 -3.03271,-0.900909 4.7140614,4.7140614 0 0 0 -2.77606,0.659968 4.0331414,4.0331414 0 0 0 -1.32517,2.330842 l -2.61893,-0.356174 a 6.4844533,6.4844533 0 0 1 1.16804,-2.702728 5.2064189,5.2064189 0 0 1 2.3518,-1.571354 10.585687,10.585687 0 0 1 3.56697,-0.555212 9.3286037,9.3286037 0 0 1 3.26841,0.476644 4.3002716,4.3002716 0 0 1 1.84896,1.188991 4.1378983,4.1378983 0 0 1 0.82758,1.812295 14.885958,14.885958 0 0 1 0.13619,2.45655 v 3.551259 a 38.571498,38.571498 0 0 0 0.16761,4.714062 5.9030524,5.9030524 0 0 0 0.67568,1.885624 h -2.77606 a 5.5678303,5.5678303 0 0 1 -0.53426,-1.953716 z m -0.19904,-5.944956 a 19.217657,19.217657 0 0 1 -4.34741,1.005667 9.9047668,9.9047668 0 0 0 -2.3256,0.523784 2.3203658,2.3203658 0 0 0 -1.04757,0.864245 2.2470359,2.2470359 0 0 0 -0.37189,1.267559 2.2732252,2.2732252 0 0 0 0.80663,1.77563 3.4831676,3.4831676 0 0 0 2.35703,0.707109 5.4892626,5.4892626 0 0 0 2.73939,-0.675682 4.1378983,4.1378983 0 0 0 1.75992,-1.838484 6.3901721,6.3901721 0 0 0 0.4295,-2.660826 z M 217.03539,98.24104 V 76.509217 h 2.42512 v 2.042759 a 5.9449552,5.9449552 0 0 1 1.938,-1.796581 5.2745109,5.2745109 0 0 1 2.61893,-0.602352 6.2068475,6.2068475 0 0 1 3.55126,1.047569 6.3639829,6.3639829 0 0 1 2.32036,2.922718 10.638065,10.638065 0 0 1 0.78568,4.132661 10.517595,10.517595 0 0 1 -0.86425,4.342174 6.5473075,6.5473075 0 0 1 -2.51416,2.959383 6.4687398,6.4687398 0 0 1 -3.47269,1.047569 5.0545214,5.0545214 0 0 1 -2.38846,-0.560449 5.4892626,5.4892626 0 0 1 -1.73897,-1.419457 v 7.647256 z m 2.40941,-13.786011 q 0,3.032713 1.23089,4.478358 a 3.7502977,3.7502977 0 0 0 2.96986,1.450884 3.8550547,3.8550547 0 0 0 3.04319,-1.498024 c 0.84329,-1.000429 1.26232,-2.556069 1.26232,-4.656445 q 0,-3.001286 -1.23613,-4.494072 a 3.7241085,3.7241085 0 0 0 -2.94891,-1.498024 3.844579,3.844579 0 0 0 -3.01176,1.571354 c -0.86948,1.084234 -1.30946,2.62416 -1.30946,4.645969 z m 25.19404,2.707966 2.74986,0.34046 a 6.7149186,6.7149186 0 0 1 -2.4094,3.739822 7.2282275,7.2282275 0 0 1 -4.49931,1.330413 q -3.44127,0 -5.46308,-2.095138 -2.02181,-2.095139 -2.02181,-5.955431 0,-3.959812 2.04276,-6.154469 a 6.9244324,6.9244324 0 0 1 5.29547,-2.18942 6.7201564,6.7201564 0 0 1 5.1488,2.147517 q 1.99562,2.147517 1.99562,6.033999 v 0.712347 h -11.72754 c 0.0943,1.723251 0.58664,3.048426 1.46136,3.965049 a 4.3631257,4.3631257 0 0 0 3.28413,1.372316 4.0540928,4.0540928 0 0 0 2.49845,-0.769964 5.0754728,5.0754728 0 0 0 1.64469,-2.477501 z m -8.74197,-4.305509 h 8.77339 a 5.3478408,5.3478408 0 0 0 -1.00566,-2.975097 4.080282,4.080282 0 0 0 -3.29985,-1.539926 4.1902768,4.1902768 0 0 0 -3.08509,1.230893 4.8554832,4.8554832 0 0 0 -1.38279,3.28413 z m 14.83882,9.360031 V 76.503979 h 2.41465 v 2.23656 a 5.646398,5.646398 0 0 1 5.00214,-2.618923 6.5473075,6.5473075 0 0 1 2.61892,0.523785 4.0907577,4.0907577 0 0 1 1.78087,1.33565 5.1068999,5.1068999 0 0 1 0.83282,1.96943 15.189753,15.189753 0 0 1 0.14666,2.587496 v 9.67954 h -2.66083 v -9.553831 a 7.1182327,7.1182327 0 0 0 -0.31427,-2.435599 2.5351175,2.5351175 0 0 0 -1.1209,-1.262321 3.4779297,3.4779297 0 0 0 -1.85944,-0.481882 4.3212229,4.3212229 0 0 0 -2.93319,1.078997 c -0.82234,0.722822 -1.23613,2.095138 -1.23613,4.095995 v 8.558641 z m 22.65892,-2.377982 0.3876,2.351792 a 9.9047668,9.9047668 0 0 1 -2.01133,0.235704 4.5307368,4.5307368 0 0 1 -2.25228,-0.460931 2.5560688,2.5560688 0 0 1 -1.1209,-1.204705 c -0.21998,-0.523784 -0.32474,-1.571353 -0.32474,-3.142707 v -9.040522 h -1.95372 v -2.068949 h 1.95372 v -3.89172 l 2.61892,-1.571354 v 5.489263 h 2.67654 v 2.068949 h -2.67654 v 9.160993 a 4.6197802,4.6197802 0 0 0 0.14142,1.466596 1.1261369,1.1261369 0 0 0 0.46093,0.523785 1.7808676,1.7808676 0 0 0 0.90615,0.1938 8.7891056,8.7891056 0 0 0 1.19423,-0.109994 z m 2.57702,2.377982 V 76.503979 h 2.3937 v 2.38322 a 6.5106426,6.5106426 0 0 1 1.69706,-2.205134 2.9436695,2.9436695 0 0 1 1.70754,-0.523784 5.2011811,5.2011811 0 0 1 2.73415,0.859007 l -0.91662,2.472263 a 3.7712491,3.7712491 0 0 0 -1.95372,-0.576163 2.5298796,2.5298796 0 0 0 -1.57135,0.523784 2.8598639,2.8598639 0 0 0 -0.98996,1.456122 10.302843,10.302843 0 0 0 -0.44521,3.106042 v 8.223419 z m 20.41189,0 v -2.304653 a 5.7616306,5.7616306 0 0 1 -4.99691,2.671302 6.4006478,6.4006478 0 0 1 -2.61892,-0.523785 4.2478931,4.2478931 0 0 1 -1.79135,-1.340888 5.0388079,5.0388079 0 0 1 -0.82234,-1.974668 13.901243,13.901243 0 0 1 -0.16237,-2.487977 v -9.747631 h 2.66606 v 8.741964 a 15.362602,15.362602 0 0 0 0.16238,2.807486 2.7812962,2.7812962 0 0 0 1.04757,1.649921 3.3155565,3.3155565 0 0 0 2.04276,0.570926 4.3683636,4.3683636 0 0 0 2.24703,-0.612828 3.3784107,3.3784107 0 0 0 1.48755,-1.670873 8.3124616,8.3124616 0 0 0 0.43998,-3.069378 v -8.417218 h 2.66082 v 15.713538 z m 13.97981,-7.851531 q 0,-4.368364 2.42512,-6.463502 a 7.3015573,7.3015573 0 0 1 4.94453,-1.749441 7.039665,7.039665 0 0 1 5.29546,2.126565 q 2.05847,2.095139 2.05323,5.86115 c 0,2.021809 -0.29855,3.614114 -0.90614,4.771678 a 6.4896912,6.4896912 0 0 1 -2.65035,2.702728 7.7258229,7.7258229 0 0 1 -3.7922,0.969002 7.039665,7.039665 0 0 1 -5.33213,-2.095139 q -2.03752,-2.142279 -2.03752,-6.123041 z m 2.73939,0 q 0,3.016999 1.3147,4.520261 a 4.3893149,4.3893149 0 0 0 6.6154,0 q 1.30946,-1.5085 1.3147,-4.598829 0,-2.912243 -1.32518,-4.415504 a 4.3893149,4.3893149 0 0 0 -6.60492,0 q -1.3147,1.48231 -1.3147,4.494072 z m 27.88105,7.851531 -5.97114,-15.713538 h 2.80749 l 3.37317,9.428122 q 0.52378,1.524214 1.00566,3.142708 c 0.23571,-0.82758 0.56569,-1.828008 0.98996,-2.99081 l 3.49364,-9.585258 h 2.73416 l -5.94496,15.713538 z m 10.80044,-18.620543 v -3.06414 h 2.66607 v 3.06414 z m 0,18.620543 V 76.503979 h 2.66607 v 15.713538 z m 16.97062,-1.938003 a 9.7738206,9.7738206 0 0 1 -2.84938,1.775629 8.2181804,8.2181804 0 0 1 -2.93844,0.523785 q -2.58225,0 -3.97552,-1.262321 a 4.1902768,4.1902768 0 0 1 -1.39327,-3.231751 4.3631257,4.3631257 0 0 1 1.90134,-3.666492 6.5420697,6.5420697 0 0 1 1.91705,-0.87472 19.956193,19.956193 0 0 1 2.36751,-0.398077 24.282654,24.282654 0 0 0 4.74549,-0.916623 v -0.696633 q 0,-1.623732 -0.75425,-2.294177 a 4.4835962,4.4835962 0 0 0 -3.03272,-0.900909 4.6721586,4.6721586 0 0 0 -2.77082,0.659968 4.0069522,4.0069522 0 0 0 -1.32517,2.330842 l -2.61892,-0.356174 a 6.4215992,6.4215992 0 0 1 1.16804,-2.702728 5.1488026,5.1488026 0 0 1 2.35179,-1.571354 10.585687,10.585687 0 0 1 3.56697,-0.555212 9.3286037,9.3286037 0 0 1 3.26842,0.476644 4.3316986,4.3316986 0 0 1 1.84896,1.188991 4.1902768,4.1902768 0 0 1 0.82758,1.812295 15.058807,15.058807 0 0 1 0.13094,2.45655 v 3.551259 a 37.042047,37.042047 0 0 0 0.17285,4.714062 5.7616306,5.7616306 0 0 0 0.67045,1.885624 h -2.7813 a 5.6830629,5.6830629 0 0 1 -0.4976,-1.948478 z m -0.22522,-5.944956 a 19.076235,19.076235 0 0 1 -4.34742,1.005667 9.9519074,9.9519074 0 0 0 -2.3256,0.523784 2.346555,2.346555 0 0 0 -1.04757,0.864245 2.3517929,2.3517929 0 0 0 0.43474,3.043189 3.4884054,3.4884054 0 0 0 2.36227,0.707109 5.4525977,5.4525977 0 0 0 2.73416,-0.675682 4.0855199,4.0855199 0 0 0 1.75991,-1.838484 6.3901721,6.3901721 0 0 0 0.42951,-2.660826 z m 12.63368,5.504977 0.3876,2.351792 a 9.9047668,9.9047668 0 0 1 -2.01133,0.235704 4.5307368,4.5307368 0 0 1 -2.25227,-0.460931 2.5560688,2.5560688 0 0 1 -1.1209,-1.204705 q -0.32999,-0.749011 -0.32999,-3.142707 v -9.040522 h -1.94848 v -2.068949 h 1.94848 v -3.89172 l 2.65035,-1.571354 v 5.489263 h 2.67654 v 2.068949 h -2.67654 v 9.160993 a 4.6197802,4.6197802 0 0 0 0.14142,1.466596 1.1470883,1.1470883 0 0 0 0.4557,0.523785 1.8122947,1.8122947 0 0 0 0.91138,0.1938 8.7891056,8.7891056 0 0 0 1.16804,-0.109994 z m -3.73982,6.893005 v -2.72368 h 2.73415 v 2.72368 a 3.7136328,3.7136328 0 0 1 -0.52378,1.943241 3.5198325,3.5198325 0 0 1 -1.69182,1.414219 l -0.65473,-1.04757 a 2.5089282,2.5089282 0 0 0 1.51373,-2.336079 z m 16.62492,-6.453026 a 9.7738206,9.7738206 0 0 1 -2.84939,1.775629 8.2181804,8.2181804 0 0 1 -2.93843,0.523785 c -1.72325,0 -3.05366,-0.419028 -3.98076,-1.262321 a 4.1902768,4.1902768 0 0 1 -1.38803,-3.231751 4.3055094,4.3055094 0 0 1 0.52379,-2.095138 4.3683636,4.3683636 0 0 1 1.37755,-1.529451 6.5420697,6.5420697 0 0 1 1.91705,-0.874721 19.762393,19.762393 0 0 1 2.36751,-0.398076 24.282654,24.282654 0 0 0 4.74549,-0.916623 v -0.696633 q 0,-1.623733 -0.75425,-2.294177 a 4.4835962,4.4835962 0 0 0 -3.03272,-0.900909 4.7140614,4.7140614 0 0 0 -2.77606,0.659968 4.0017143,4.0017143 0 0 0 -1.31993,2.330842 l -2.61893,-0.356174 a 6.4215992,6.4215992 0 0 1 1.16804,-2.702728 5.1488026,5.1488026 0 0 1 2.3518,-1.571354 10.55426,10.55426 0 0 1 3.56173,-0.555212 9.3809822,9.3809822 0 0 1 3.27366,0.476644 4.3316986,4.3316986 0 0 1 1.84895,1.188991 4.1902768,4.1902768 0 0 1 0.82758,1.812295 15.058807,15.058807 0 0 1 0.13095,2.45655 v 3.551259 a 37.042047,37.042047 0 0 0 0.17285,4.714062 5.7616306,5.7616306 0 0 0 0.67044,1.885624 h -2.7551 a 5.6830629,5.6830629 0 0 1 -0.52379,-1.990381 z m -0.22522,-5.944956 a 19.076235,19.076235 0 0 1 -4.34742,1.005667 9.9519074,9.9519074 0 0 0 -2.3256,0.523784 2.346555,2.346555 0 0 0 -1.04757,0.864245 2.3517929,2.3517929 0 0 0 0.43474,3.043189 3.4884054,3.4884054 0 0 0 2.36227,0.707109 5.4525977,5.4525977 0 0 0 2.73416,-0.675682 4.0855199,4.0855199 0 0 0 1.75991,-1.838484 6.3901721,6.3901721 0 0 0 0.42951,-2.660826 z m -0.82235,-13.749345 h 1.81754 a 4.284558,4.284558 0 0 1 -1.35137,2.838912 5.1121377,5.1121377 0 0 1 -6.03923,0 4.2636066,4.2636066 0 0 1 -1.35137,-2.84415 h 1.81753 a 2.2679873,2.2679873 0 0 0 2.47227,1.995619 2.9122424,2.9122424 0 0 0 1.81229,-0.481882 2.4617876,2.4617876 0 0 0 0.82234,-1.508499 z m 16.03305,21.632304 V 76.503979 h 2.38322 v 2.205133 a 5.5468789,5.5468789 0 0 1 4.7612,-2.561307 5.1435648,5.1435648 0 0 1 2.8651,0.728061 3.8917196,3.8917196 0 0 1 1.57136,2.027046 q 1.86467,-2.755107 4.85024,-2.755107 a 4.7769156,4.7769156 0 0 1 3.59317,1.298986 q 1.25708,1.28851 1.25708,3.986001 v 10.784725 h -2.61892 v -9.894291 a 7.2491789,7.2491789 0 0 0 -0.2619,-2.299415 2.1894196,2.1894196 0 0 0 -0.93757,-1.131375 2.9174802,2.9174802 0 0 0 -1.57136,-0.429503 3.7136328,3.7136328 0 0 0 -2.74986,1.099948 c -0.7333,0.738536 -1.09471,1.911814 -1.09471,3.530308 v 9.124328 h -2.66607 V 82.014193 a 4.4993097,4.4993097 0 0 0 -0.64949,-2.666064 2.4617876,2.4617876 0 0 0 -2.1318,-0.885196 3.8969574,3.8969574 0 0 0 -2.09514,0.591877 3.3626971,3.3626971 0 0 0 -1.38279,1.728489 9.8471505,9.8471505 0 0 0 -0.42427,3.284129 v 8.150089 z m 35.49164,-1.938003 a 9.7738206,9.7738206 0 0 1 -2.84938,1.775629 8.2181804,8.2181804 0 0 1 -2.93844,0.523785 q -2.58749,0 -3.97552,-1.262321 a 4.1902768,4.1902768 0 0 1 -1.39327,-3.231751 4.3631257,4.3631257 0 0 1 1.90134,-3.666492 6.5420697,6.5420697 0 0 1 1.91705,-0.87472 19.956193,19.956193 0 0 1 2.36751,-0.398077 24.282654,24.282654 0 0 0 4.74549,-0.916623 v -0.696633 q 0,-1.623732 -0.75425,-2.294177 a 4.4835962,4.4835962 0 0 0 -3.03272,-0.900909 4.7140614,4.7140614 0 0 0 -2.77082,0.659968 4.0069522,4.0069522 0 0 0 -1.32517,2.330842 l -2.61892,-0.356174 a 6.4215992,6.4215992 0 0 1 1.16804,-2.702728 5.1488026,5.1488026 0 0 1 2.35179,-1.571354 10.585687,10.585687 0 0 1 3.56697,-0.555212 9.3286037,9.3286037 0 0 1 3.26842,0.476644 4.3316986,4.3316986 0 0 1 1.84896,1.188991 4.1902768,4.1902768 0 0 1 0.82758,1.812295 15.058807,15.058807 0 0 1 0.13094,2.45655 v 3.551259 a 37.042047,37.042047 0 0 0 0.17285,4.714062 5.7616306,5.7616306 0 0 0 0.67045,1.885624 h -2.7813 a 5.6830629,5.6830629 0 0 1 -0.4976,-1.948478 z m -0.22522,-5.944956 a 19.076235,19.076235 0 0 1 -4.34742,1.005667 9.8471505,9.8471505 0 0 0 -2.32036,0.523784 2.3360793,2.3360793 0 0 0 -1.04757,0.864245 2.3517929,2.3517929 0 0 0 0.43474,3.043189 3.4884054,3.4884054 0 0 0 2.36227,0.707109 5.4525977,5.4525977 0 0 0 2.73416,-0.675682 4.0855199,4.0855199 0 0 0 1.75991,-1.838484 6.3901721,6.3901721 0 0 0 0.4295,-2.660826 z m 6.84062,-10.737584 v -3.06414 h 2.66083 v 3.06414 z m 0,18.620543 V 76.503979 h 2.66083 v 15.713538 z m 17.58345,0 h -2.46702 V 70.532834 h 2.66082 v 7.736299 a 5.2797488,5.2797488 0 0 1 4.30551,-2.095139 6.5577832,6.5577832 0 0 1 2.74463,0.586639 5.6149709,5.6149709 0 0 1 2.12657,1.639446 7.856769,7.856769 0 0 1 1.30946,2.556069 10.386649,10.386649 0 0 1 0.47664,3.195086 q 0,4.038379 -2.00085,6.238274 a 6.2382746,6.2382746 0 0 1 -4.79263,2.194658 4.9969051,4.9969051 0 0 1 -4.36313,-2.320366 z m -0.0262,-7.972002 c 0,1.885625 0.25142,3.247465 0.76473,4.08552 a 3.807914,3.807914 0 0 0 6.4216,0.523785 q 1.27279,-1.518976 1.27279,-4.520262 0,-3.001285 -1.22041,-4.541212 a 3.7031571,3.7031571 0 0 0 -2.94891,-1.466597 3.8341033,3.8341033 0 0 0 -3.02224,1.518975 q -1.26232,1.529451 -1.26756,4.399791 z m 24.7174,7.972002 v -2.304653 a 5.7616306,5.7616306 0 0 1 -4.98643,2.660826 6.4373127,6.4373127 0 0 1 -2.61892,-0.523784 4.2583688,4.2583688 0 0 1 -1.78611,-1.340889 4.965478,4.965478 0 0 1 -0.82234,-1.974668 13.419361,13.419361 0 0 1 -0.16237,-2.487977 v -9.737155 h 2.6713 v 8.741964 a 15.870673,15.870673 0 0 0 0.16237,2.807486 2.7655827,2.7655827 0 0 0 1.04757,1.649921 3.2946051,3.2946051 0 0 0 2.01133,0.597115 4.3945528,4.3945528 0 0 0 2.24704,-0.612828 3.4045999,3.4045999 0 0 0 1.48755,-1.670873 8.4434078,8.4434078 0 0 0 0.43474,-3.069378 v -8.443407 h 2.66606 v 15.713538 z m 6.55254,0 V 76.503979 h 2.39894 v 2.23656 a 5.6359223,5.6359223 0 0 1 4.9969,-2.618923 6.5734967,6.5734967 0 0 1 2.61893,0.523785 4.1221848,4.1221848 0 0 1 1.78086,1.33565 5.1802297,5.1802297 0 0 1 0.82758,1.96943 15.189753,15.189753 0 0 1 0.14666,2.587496 v 9.67954 h -2.66082 v -9.553831 a 7.2806059,7.2806059 0 0 0 -0.30904,-2.435599 2.5717824,2.5717824 0 0 0 -1.10518,-1.283272 3.4569784,3.4569784 0 0 0 -1.8542,-0.481882 4.3212229,4.3212229 0 0 0 -2.93843,1.078996 c -0.82234,0.722823 -1.23089,2.095139 -1.23089,4.095996 v 8.579592 z m 27.12157,-1.938003 a 9.6376366,9.6376366 0 0 1 -2.84939,1.775629 8.2077047,8.2077047 0 0 1 -2.93319,0.523785 q -2.61892,0 -3.98076,-1.262321 a 4.1902768,4.1902768 0 0 1 -1.38803,-3.231751 4.3055094,4.3055094 0 0 1 0.52378,-2.095138 4.35265,4.35265 0 0 1 1.37232,-1.529451 6.667778,6.667778 0 0 1 1.91705,-0.874721 20.155231,20.155231 0 0 1 2.3675,-0.398076 24.266941,24.266941 0 0 0 4.75073,-0.916623 v -0.696633 c 0,-1.084235 -0.25665,-1.84896 -0.75949,-2.294177 -0.67568,-0.597114 -1.69182,-0.900909 -3.03271,-0.900909 a 4.7140614,4.7140614 0 0 0 -2.77082,0.659968 4.0331414,4.0331414 0 0 0 -1.32517,2.330842 l -2.61893,-0.356174 a 6.4844533,6.4844533 0 0 1 1.16804,-2.702728 5.1749918,5.1749918 0 0 1 2.35179,-1.571354 10.585687,10.585687 0 0 1 3.56698,-0.555212 9.3286037,9.3286037 0 0 1 3.26841,0.476644 4.3002716,4.3002716 0 0 1 1.84896,1.188991 4.1902768,4.1902768 0 0 1 0.82758,1.812295 14.885958,14.885958 0 0 1 0.13619,2.45655 v 3.551259 a 37.450599,37.450599 0 0 0 0.16761,4.714062 5.9030524,5.9030524 0 0 0 0.67568,1.885624 h -2.76034 a 5.5678303,5.5678303 0 0 1 -0.52379,-1.990381 z m -0.21999,-5.944956 a 19.207181,19.207181 0 0 1 -4.35265,1.005667 9.9152425,9.9152425 0 0 0 -2.32036,0.523784 2.3360793,2.3360793 0 0 0 -1.04757,0.864245 2.3622685,2.3622685 0 0 0 0.43998,3.043189 3.4726919,3.4726919 0 0 0 2.35703,0.707109 5.4892626,5.4892626 0 0 0 2.73939,-0.675682 4.1378983,4.1378983 0 0 0 1.75992,-1.838484 6.4792155,6.4792155 0 0 0 0.4295,-2.660826 z M 526.0421,70.585213 h 1.82277 a 4.3107473,4.3107473 0 0 1 -1.3566,2.838912 5.101662,5.101662 0 0 1 -6.034,0 4.2897959,4.2897959 0 0 1 -1.3566,-2.84415 h 1.82277 a 2.4565498,2.4565498 0 0 0 0.82234,1.498024 2.5141661,2.5141661 0 0 0 1.64469,0.523784 2.9017667,2.9017667 0 0 0 1.81229,-0.481881 2.4355984,2.4355984 0 0 0 0.82234,-1.534689 z m 8.38056,21.632304 v -3.027475 h 3.03271 v 3.027475 z"
     fill="#00386c"
     id="path14"
     style="stroke-width:0.999999" />
</svg>
